<svg version="1.1" id="Layer_1" xmlns="http://www.w3.org/2000/svg" xmlns:xlink="http://www.w3.org/1999/xlink" x="0px" y="0px" width="100%" viewBox="0 0 814 814" enable-background="new 0 0 814 814" xml:space="preserve">
<path fill="#000000" opacity="1.000000" stroke="none" d="
M461.000000,815.000000 
	C307.333374,815.000000 154.166763,815.000000 1.000103,815.000000 
	C1.000068,543.666809 1.000068,272.333588 1.000034,1.000285 
	C272.333130,1.000190 543.666260,1.000190 814.999512,1.000095 
	C814.999695,272.333038 814.999695,543.666077 814.999878,814.999573 
	C697.166687,815.000000 579.333313,815.000000 461.000000,815.000000 
M166.065643,281.103149 
	C155.707245,282.471924 145.348831,283.840698 134.220856,285.145355 
	C126.452103,287.954834 118.683342,290.764313 110.191772,293.784363 
	C100.429329,299.716858 90.666878,305.649353 80.268257,311.885559 
	C73.129036,318.888672 65.989815,325.891785 58.290260,333.252441 
	C49.169319,344.093964 41.359123,355.748108 35.692356,369.572510 
	C13.242634,417.074768 23.533657,476.832397 41.958611,506.424866 
	C41.958611,504.890106 41.958611,503.599091 42.025578,501.444824 
	C43.982582,476.890869 53.495007,455.929962 71.687561,439.102570 
	C84.027084,427.688995 97.883759,418.393555 113.830734,413.213379 
	C132.739136,407.071198 152.103088,402.340057 171.229034,396.855896 
	C184.289108,393.111084 197.438644,389.502045 208.994446,381.093842 
	C208.994446,381.093842 209.339539,380.868530 209.919601,380.675201 
	C214.936752,375.777252 219.953888,370.879303 225.520737,365.588440 
	C234.045029,354.099640 237.016190,341.044098 234.208771,327.293396 
	C229.083466,302.189789 212.026352,288.973541 187.189636,283.170471 
	C180.454697,282.526489 173.719757,281.882507 166.065643,281.103149 
M274.823761,477.254913 
	C280.832581,467.496185 286.841400,457.737427 293.298492,447.425598 
	C303.543365,425.442322 308.506683,402.262360 307.734467,378.083496 
	C306.968750,354.108063 302.317627,330.973358 289.488495,310.096649 
	C289.628052,311.368378 289.767609,312.640106 289.210663,314.362427 
	C288.551453,327.707336 284.821045,340.160919 278.236359,351.756927 
	C266.724548,372.029846 249.246979,385.653503 228.820511,395.985718 
	C209.650452,405.682434 188.827423,410.061768 168.175339,415.063202 
	C153.184570,418.693573 138.221222,422.534454 124.401466,431.154877 
	C123.792717,431.729919 123.183968,432.304962 121.922447,432.994293 
	C116.929634,437.647339 111.936821,442.300415 106.377831,447.317780 
	C98.756325,456.644775 95.554214,467.627960 96.424698,479.315582 
	C98.809860,511.340179 126.783028,527.803711 152.830658,530.005188 
	C159.181015,530.169922 165.531372,530.334656 172.698944,530.567505 
	C174.053802,530.419312 175.408661,530.271118 177.057465,530.388794 
	C177.387665,530.268250 177.717865,530.147705 178.929733,530.030090 
	C193.319824,528.950317 207.022339,525.321594 220.708282,518.896179 
	C231.220963,512.457092 241.733643,506.018005 252.750900,499.076965 
	C259.905487,491.931244 267.060089,484.785522 274.823761,477.254913 
M780.708435,427.073486 
	C782.982788,427.073486 785.257141,427.073486 787.153503,427.073486 
	C787.153503,415.761688 787.850647,404.933716 786.943054,394.241974 
	C786.151489,384.917511 779.377625,380.081329 769.987244,380.141296 
	C763.565491,380.182281 758.517212,382.958313 754.866272,387.963074 
	C745.930359,377.633423 736.380249,378.152222 726.274475,385.692200 
	C726.021790,384.112000 725.798645,382.716248 725.582275,381.363403 
	C722.014099,381.363403 718.754211,381.363403 715.365967,381.363403 
	C715.365967,396.685150 715.365967,411.735474 715.365967,426.801147 
	C719.080322,426.801147 722.479248,426.801147 726.119934,426.801147 
	C726.119934,418.369659 726.039246,410.233032 726.149780,402.098969 
	C726.217651,397.098938 727.908020,392.838562 733.114868,391.139038 
	C740.293640,388.795929 745.716492,393.017975 745.893799,401.209503 
	C746.079468,409.789978 745.935303,418.377594 745.935303,426.760254 
	C750.198853,426.760254 753.606628,426.760254 757.170593,426.760254 
	C757.170593,418.101074 757.064392,409.783325 757.205994,401.469788 
	C757.309448,395.394257 760.177063,391.733704 765.058533,390.855103 
	C771.810974,389.639679 776.237732,393.293030 776.615356,401.060699 
	C776.978821,408.537170 776.798401,416.042511 776.759399,423.534637 
	C776.747925,425.732849 776.742249,427.641083 780.708435,427.073486 
M452.199066,381.072052 
	C444.221802,378.732697 437.257690,380.835632 431.041809,386.314331 
	C430.690430,384.326843 430.410065,382.740845 430.158752,381.319275 
	C426.556702,381.319275 423.289062,381.319275 419.899994,381.319275 
	C419.899994,402.189789 419.899994,422.799713 419.899994,443.346497 
	C423.685333,443.346497 427.215698,443.346497 431.255615,443.346497 
	C431.255615,435.939240 431.255615,428.920471 431.255615,421.336761 
	C440.073151,431.574951 456.783600,429.817719 464.356445,418.991302 
	C471.417572,408.896393 471.227234,388.142242 452.199066,381.072052 
M409.453796,414.567505 
	C411.331482,403.411560 408.513092,397.833954 398.850830,393.881836 
	C396.248993,392.817566 393.531372,392.031525 390.852783,391.161102 
	C386.925079,389.884796 382.758545,389.083374 379.145264,387.209167 
	C377.343933,386.274872 375.483124,383.347504 375.591095,381.431030 
	C375.699677,379.504211 377.945190,377.343536 379.774719,375.987579 
	C381.082947,375.017914 383.367035,374.640472 385.013245,374.980164 
	C391.254944,376.268219 397.414185,377.955933 404.180664,379.637421 
	C405.149475,377.796539 406.724457,374.803772 408.273193,371.860962 
	C399.160522,365.017059 389.190399,363.935547 378.955536,365.299347 
	C370.218597,366.463501 364.243256,373.122559 363.585693,381.156586 
	C362.920593,389.282867 366.925201,395.080902 375.781067,398.336060 
	C379.355438,399.649872 383.150665,400.351929 386.765533,401.569458 
	C389.729614,402.567780 392.896088,403.458649 395.403320,405.211700 
	C399.887329,408.346802 398.999664,415.050323 393.813873,416.721863 
	C390.621643,417.750793 386.722900,418.316559 383.595612,417.450409 
	C377.507263,415.764069 371.738251,412.924744 365.426239,410.398590 
	C364.100281,412.342926 362.347748,414.912781 360.602264,417.472229 
	C368.168793,426.569824 386.078979,430.810760 397.807037,426.355255 
	C403.194458,424.308563 407.349762,421.037292 409.453796,414.567505 
M517.124084,418.243713 
	C515.661072,416.902557 514.198059,415.561432 512.765320,414.248077 
	C501.243225,422.391846 489.292969,419.810120 487.418915,408.554321 
	C498.580383,408.554321 509.683716,408.554321 521.099365,408.554321 
	C521.853271,398.144440 519.797241,389.317780 510.717712,383.483948 
	C500.836395,377.134918 486.605408,380.303223 479.756744,390.216492 
	C472.545502,400.654694 474.562714,415.652069 484.174103,423.057526 
	C493.952667,430.591797 510.671326,429.844818 517.601013,421.464447 
	C518.049194,420.922394 517.618530,419.653625 517.124084,418.243713 
M671.389465,427.157318 
	C679.162903,429.558990 686.065796,427.979248 692.253479,421.962585 
	C692.694702,424.069855 693.011597,425.583160 693.266846,426.802368 
	C696.893372,426.802368 700.148315,426.802368 703.280640,426.802368 
	C703.280640,411.398987 703.280640,396.334961 703.280640,381.446045 
	C699.456299,381.446045 696.058838,381.446045 692.243225,381.446045 
	C692.243225,389.948883 692.497620,398.102112 692.169617,406.231873 
	C691.859314,413.924042 687.479309,418.030426 680.661560,417.833618 
	C674.290894,417.649658 671.265686,413.861908 671.201904,405.769592 
	C671.137756,397.629486 671.187866,389.488464 671.187866,381.416199 
	C667.215332,381.416199 663.650330,381.416199 660.105103,381.416199 
	C660.105103,391.262238 659.897461,400.756256 660.171448,410.236298 
	C660.386963,417.691406 663.260681,423.826263 671.389465,427.157318 
M611.474243,365.362274 
	C598.697510,365.362274 585.920776,365.362274 572.898315,365.362274 
	C572.898315,368.989746 572.898315,372.248169 572.898315,376.055908 
	C579.337036,376.055908 585.546631,376.055908 592.103455,376.055908 
	C592.103455,393.336578 592.103455,410.070801 592.103455,426.730408 
	C596.029114,426.730408 599.567810,426.730408 603.527222,426.730408 
	C603.527222,409.657166 603.527222,392.933807 603.527222,375.876740 
	C610.239197,375.876740 616.522522,375.876740 623.087036,375.876740 
	C623.087036,372.291199 623.087036,369.048218 623.087036,365.361481 
	C619.382996,365.361481 615.921448,365.361481 611.474243,365.362274 
M557.449951,390.569336 
	C559.859192,391.969055 562.268433,393.368774 565.002991,394.957458 
	C567.005249,393.089722 569.282654,390.965393 571.527893,388.871063 
	C565.665344,381.013367 554.899475,378.049927 544.807983,381.269318 
	C534.798157,384.462708 528.438416,393.263947 528.235352,404.204254 
	C528.045715,414.419067 534.377930,423.622345 543.829407,426.868805 
	C554.239990,430.444702 565.201904,427.607635 571.541382,419.440613 
	C569.199402,417.471558 566.842896,415.490326 564.470154,413.495453 
	C563.025024,414.576721 561.888367,415.549622 560.637878,416.343140 
	C552.186096,421.706451 541.714417,417.162598 539.843201,407.347382 
	C537.729980,396.262207 544.982971,388.919617 557.449951,390.569336 
M626.131775,382.909332 
	C626.131775,397.497131 626.131775,412.084900 626.131775,426.823547 
	C630.189331,426.823547 633.578918,426.823547 637.213074,426.823547 
	C637.213074,419.580505 637.116455,412.605652 637.241821,405.634796 
	C637.353943,399.401886 640.225281,394.795074 646.128296,392.485046 
	C648.245422,391.656586 650.597473,391.428528 652.686096,390.961395 
	C652.686096,387.369019 652.686096,383.951721 652.686096,379.839905 
	C649.543457,380.733093 646.678345,381.099274 644.276489,382.353027 
	C641.756531,383.668396 639.680786,385.834839 637.233276,387.769775 
	C637.062927,385.493134 636.909485,383.442749 636.707520,380.743988 
	C632.985229,381.191315 629.636230,381.593811 626.131775,382.909332 
z" data-index="0" style="opacity: 1; visibility: visible; fill: rgb(250, 249, 250);"></path>
<path fill="#F2F1F1" opacity="1.000000" stroke="none" d="
M208.590607,381.176331 
	C197.438644,389.502045 184.289108,393.111084 171.229034,396.855896 
	C152.103088,402.340057 132.739136,407.071198 113.830734,413.213379 
	C97.883759,418.393555 84.027084,427.688995 71.687561,439.102570 
	C53.495007,455.929962 43.982582,476.890869 41.697395,501.563965 
	C40.906605,494.756775 40.444000,487.830475 40.289677,481.064819 
	C44.902699,482.012329 43.471516,478.018280 43.693665,476.633972 
	C46.101616,461.628510 50.443661,447.230530 56.082447,433.150482 
	C64.145126,413.017914 76.079323,395.553802 92.882294,381.906403 
	C113.857231,364.870514 137.949188,356.658752 165.168839,360.099304 
	C179.208405,361.873901 192.472916,365.954712 202.570206,376.917389 
	C204.198730,378.685455 206.565247,379.773804 208.590607,381.176331 
z" data-index="1" style="opacity: 1;"></path>
<path fill="#F2F1F1" opacity="1.000000" stroke="none" d="
M125.034332,431.084167 
	C138.221222,422.534454 153.184570,418.693573 168.175339,415.063202 
	C188.827423,410.061768 209.650452,405.682434 228.820511,395.985718 
	C249.246979,385.653503 266.724548,372.029846 278.236359,351.756927 
	C284.821045,340.160919 288.551453,327.707336 289.900970,314.362671 
	C290.821289,316.797699 291.051270,319.232513 291.176636,322.099670 
	C289.368317,330.917725 287.801239,339.333954 285.937103,347.683899 
	C278.133392,382.638672 263.693939,413.859436 233.797745,435.530090 
	C206.719894,455.157837 177.174255,460.586945 145.573135,447.543884 
	C137.353088,444.151154 129.702362,439.281769 125.034332,431.084167 
z" data-index="2" style="opacity: 1;"></path>
<path fill="#D0CFD0" opacity="1.000000" stroke="none" d="
M124.717896,431.119507 
	C129.702362,439.281769 137.353088,444.151154 145.573135,447.543884 
	C177.174255,460.586945 206.719894,455.157837 233.797745,435.530090 
	C263.693939,413.859436 278.133392,382.638672 285.937103,347.683899 
	C287.801239,339.333954 289.368317,330.917725 291.369446,322.489105 
	C292.908386,338.984161 291.106018,355.342682 286.590240,371.142426 
	C283.006073,383.682556 277.526184,395.680878 272.640350,408.151123 
	C265.638184,420.821655 256.908997,431.751801 246.613434,441.878204 
	C236.497269,448.571350 226.685593,455.103943 216.504181,461.723755 
	C204.743393,464.305542 193.352341,466.800140 181.502808,469.230530 
	C165.926071,469.195648 151.458755,466.670776 138.512558,458.253326 
	C129.293213,452.259003 122.846268,444.504150 122.575211,432.880005 
	C123.183968,432.304962 123.792717,431.729919 124.717896,431.119507 
z" data-index="3" style="opacity: 1;"></path>
<path fill="#D0CFD0" opacity="1.000000" stroke="none" d="
M208.792526,381.135101 
	C206.565247,379.773804 204.198730,378.685455 202.570206,376.917389 
	C192.472916,365.954712 179.208405,361.873901 165.168839,360.099304 
	C137.949188,356.658752 113.857231,364.870514 92.882294,381.906403 
	C76.079323,395.553802 64.145126,413.017914 56.082447,433.150482 
	C50.443661,447.230530 46.101616,461.628510 43.693665,476.633972 
	C43.471516,478.018280 44.902699,482.012329 40.192673,480.617065 
	C40.105740,455.813110 45.592224,432.825562 56.099998,410.676636 
	C58.252327,406.945068 60.228985,403.507507 62.473267,399.878052 
	C70.373199,387.207397 79.950844,376.424072 91.482971,366.957062 
	C96.554939,363.603638 101.311378,360.362274 106.422195,357.058838 
	C112.543938,354.425476 118.311287,351.854218 124.475288,349.242371 
	C134.589920,347.710144 144.307892,346.218506 154.476807,344.805206 
	C163.829315,346.387146 172.730865,347.890747 181.664825,349.390869 
	C181.697220,349.387390 181.695831,349.322235 181.838440,349.538055 
	C182.313950,349.809570 182.646866,349.865265 183.270508,350.122803 
	C187.491470,352.429352 191.660828,354.188416 195.303619,356.708588 
	C203.684311,362.506561 209.778183,369.847076 209.339539,380.868530 
	C209.339539,380.868530 208.994446,381.093842 208.792526,381.135101 
z" data-index="4" style="opacity: 1;"></path>
<path fill="#BE25A1" opacity="1.000000" stroke="none" d="
M272.888000,407.919769 
	C277.526184,395.680878 283.006073,383.682556 286.590240,371.142426 
	C291.106018,355.342682 292.908386,338.984161 291.474060,322.056763 
	C291.051270,319.232513 290.821289,316.797699 290.249207,314.137360 
	C289.767609,312.640106 289.628052,311.368378 289.488495,310.096649 
	C302.317627,330.973358 306.968750,354.108063 307.734467,378.083496 
	C308.506683,402.262360 303.543365,425.442322 292.743591,447.631958 
	C291.081604,446.875122 290.126953,445.434021 288.843262,445.024658 
	C278.964294,441.874146 275.382904,433.545380 272.048096,424.642334 
	C273.071259,422.196930 273.748718,419.890320 275.086121,418.068024 
	C278.295410,413.695129 277.339905,410.496613 272.888000,407.919769 
z" data-index="5" style="opacity: 1;"></path>
<path fill="#06A9EA" opacity="1.000000" stroke="none" d="
M55.924324,410.970642 
	C45.592224,432.825562 40.105740,455.813110 39.884384,480.456390 
	C40.444000,487.830475 40.906605,494.756775 41.663910,501.995605 
	C41.958611,503.599091 41.958611,504.890106 41.958611,506.424866 
	C23.533657,476.832397 13.242634,417.074768 36.284184,369.303162 
	C37.907074,370.324310 39.228661,371.476593 39.919830,372.928925 
	C43.229130,379.882660 45.717628,387.332336 49.820004,393.762238 
	C52.139702,397.398010 53.252186,399.974060 51.612831,403.983002 
	C50.033543,407.845032 50.739811,410.957947 55.924324,410.970642 
z" data-index="6"></path>
<path fill="#581580" opacity="1.000000" stroke="none" d="
M152.005676,529.822815 
	C126.783028,527.803711 98.809860,511.340179 96.424698,479.315582 
	C95.554214,467.627960 98.756325,456.644775 106.940285,447.340088 
	C110.251350,451.658203 112.392677,456.548126 115.884247,460.117065 
	C121.813393,466.177551 128.593460,471.405548 134.740173,477.198303 
	C130.873260,482.394226 129.914856,487.485596 133.324692,493.062195 
	C135.074203,495.923492 136.181198,499.173279 137.879547,502.071075 
	C142.724716,510.337982 143.722610,520.609070 151.167160,527.531677 
	C151.697891,528.025208 151.737640,529.046753 152.005676,529.822815 
z" data-index="7"></path>
<path fill="#0F5DC0" opacity="1.000000" stroke="none" d="
M106.067825,357.120911 
	C101.311378,360.362274 96.554939,363.603638 91.094864,366.931213 
	C84.046379,365.163483 82.682907,360.800995 87.139008,356.405090 
	C88.543350,355.019714 90.509575,354.090149 91.586403,352.518738 
	C92.646538,350.971710 93.862289,348.545502 93.355621,347.074951 
	C90.632866,339.172577 87.271675,331.492981 84.385391,323.642883 
	C82.945061,319.725494 82.047493,315.608551 80.904427,311.581848 
	C90.666878,305.649353 100.429329,299.716858 110.598267,294.064453 
	C112.312859,295.717194 113.550095,297.167236 114.945770,298.444122 
	C116.997826,300.321472 119.600998,301.757294 121.190155,303.946808 
	C124.659676,308.727051 127.963783,313.692627 130.706192,318.913086 
	C132.631210,322.577576 136.552811,325.994293 133.615631,331.033936 
	C129.150955,332.716064 125.058655,334.348450 120.586914,335.993195 
	C115.714272,338.047089 111.171722,339.987793 106.740791,342.156555 
	C101.618744,344.663635 100.797745,346.809448 102.957184,352.132202 
	C103.683006,353.921326 105.013626,355.465027 106.067825,357.120911 
z" data-index="8" style="opacity: 1;"></path>
<path fill="#1833A6" opacity="1.000000" stroke="none" d="
M187.987381,283.455658 
	C212.026352,288.973541 229.083466,302.189789 234.208771,327.293396 
	C237.016190,341.044098 234.045029,354.099640 224.943573,365.619995 
	C220.574295,360.097290 217.148270,354.239502 212.874344,349.084656 
	C209.450211,344.954773 204.996506,341.678436 201.001373,337.602112 
	C202.150436,332.796387 203.545486,328.456268 204.342621,324.008972 
	C204.751999,321.725006 204.861938,318.794006 203.767487,316.950958 
	C201.050171,312.375061 198.157532,307.590546 194.251801,304.103333 
	C187.701797,298.255188 184.138931,292.155182 187.987381,283.455658 
z" data-index="9"></path>
<path fill="#ECEDEC" opacity="1.000000" stroke="none" d="
M780.253967,427.071808 
	C776.742249,427.641083 776.747925,425.732849 776.759399,423.534637 
	C776.798401,416.042511 776.978821,408.537170 776.615356,401.060699 
	C776.237732,393.293030 771.810974,389.639679 765.058533,390.855103 
	C760.177063,391.733704 757.309448,395.394257 757.205994,401.469788 
	C757.064392,409.783325 757.170593,418.101074 757.170593,426.760254 
	C753.606628,426.760254 750.198853,426.760254 745.935303,426.760254 
	C745.935303,418.377594 746.079468,409.789978 745.893799,401.209503 
	C745.716492,393.017975 740.293640,388.795929 733.114868,391.139038 
	C727.908020,392.838562 726.217651,397.098938 726.149780,402.098969 
	C726.039246,410.233032 726.119934,418.369659 726.119934,426.801147 
	C722.479248,426.801147 719.080322,426.801147 715.365967,426.801147 
	C715.365967,411.735474 715.365967,396.685150 715.365967,381.363403 
	C718.754211,381.363403 722.014099,381.363403 725.582275,381.363403 
	C725.798645,382.716248 726.021790,384.112000 726.274475,385.692200 
	C736.380249,378.152222 745.930359,377.633423 754.866272,387.963074 
	C758.517212,382.958313 763.565491,380.182281 769.987244,380.141296 
	C779.377625,380.081329 786.151489,384.917511 786.943054,394.241974 
	C787.850647,404.933716 787.153503,415.761688 787.153503,427.073486 
	C785.257141,427.073486 782.982788,427.073486 780.253967,427.071808 
z" data-index="10" style="opacity: 1;"></path>
<path fill="#801885" opacity="1.000000" stroke="none" d="
M219.986328,518.955078 
	C207.022339,525.321594 193.319824,528.950317 178.166016,530.030029 
	C177.189377,530.060974 176.976456,530.091980 176.763519,530.122925 
	C175.408661,530.271118 174.053802,530.419312 172.331345,530.090698 
	C171.687912,528.178162 171.776947,526.526550 171.076065,525.342346 
	C167.007324,518.467834 165.727982,510.996460 166.028519,503.176575 
	C166.249420,497.428680 166.665283,491.688263 167.457123,485.948456 
	C172.620743,485.637360 177.321487,485.322327 182.465179,485.013184 
	C186.355591,484.605103 189.869934,484.483337 193.235794,483.712860 
	C199.202911,482.346954 205.079834,480.587067 210.953461,479.340820 
	C210.031815,480.615387 208.842636,481.398163 208.333740,482.496216 
	C207.214706,484.910736 205.152390,487.872040 205.768799,489.919678 
	C207.512207,495.710907 210.225555,501.245575 212.913864,506.705505 
	C214.992035,510.926239 217.608948,514.881714 219.986328,518.955078 
z" data-index="11"></path>
<path fill="#EFEFED" opacity="1.000000" stroke="none" d="
M452.587769,381.169067 
	C471.227234,388.142242 471.417572,408.896393 464.356445,418.991302 
	C456.783600,429.817719 440.073151,431.574951 431.255615,421.336761 
	C431.255615,428.920471 431.255615,435.939240 431.255615,443.346497 
	C427.215698,443.346497 423.685333,443.346497 419.899994,443.346497 
	C419.899994,422.799713 419.899994,402.189789 419.899994,381.319275 
	C423.289062,381.319275 426.556702,381.319275 430.158752,381.319275 
	C430.410065,382.740845 430.690430,384.326843 431.041809,386.314331 
	C437.257690,380.835632 444.221802,378.732697 452.587769,381.169067 
M446.837433,390.259705 
	C438.730194,389.472382 433.706055,392.240234 431.596405,399.078644 
	C429.803070,404.891754 430.797638,410.314941 435.183960,414.761017 
	C438.834015,418.460785 445.093506,419.375977 450.009399,417.276245 
	C455.508179,414.927521 457.368103,410.323822 457.584686,404.881989 
	C457.862305,397.905670 454.554840,393.316559 446.837433,390.259705 
z" data-index="12" style="opacity: 1;"></path>
<path fill="#EFEFED" opacity="1.000000" stroke="none" d="
M409.318909,414.955414 
	C407.349762,421.037292 403.194458,424.308563 397.807037,426.355255 
	C386.078979,430.810760 368.168793,426.569824 360.602264,417.472229 
	C362.347748,414.912781 364.100281,412.342926 365.426239,410.398590 
	C371.738251,412.924744 377.507263,415.764069 383.595612,417.450409 
	C386.722900,418.316559 390.621643,417.750793 393.813873,416.721863 
	C398.999664,415.050323 399.887329,408.346802 395.403320,405.211700 
	C392.896088,403.458649 389.729614,402.567780 386.765533,401.569458 
	C383.150665,400.351929 379.355438,399.649872 375.781067,398.336060 
	C366.925201,395.080902 362.920593,389.282867 363.585693,381.156586 
	C364.243256,373.122559 370.218597,366.463501 378.955536,365.299347 
	C389.190399,363.935547 399.160522,365.017059 408.273193,371.860962 
	C406.724457,374.803772 405.149475,377.796539 404.180664,379.637421 
	C397.414185,377.955933 391.254944,376.268219 385.013245,374.980164 
	C383.367035,374.640472 381.082947,375.017914 379.774719,375.987579 
	C377.945190,377.343536 375.699677,379.504211 375.591095,381.431030 
	C375.483124,383.347504 377.343933,386.274872 379.145264,387.209167 
	C382.758545,389.083374 386.925079,389.884796 390.852783,391.161102 
	C393.531372,392.031525 396.248993,392.817566 398.850830,393.881836 
	C408.513092,397.833954 411.331482,403.411560 409.318909,414.955414 
z" data-index="13" style="opacity: 1;"></path>
<path fill="#9D1E91" opacity="1.000000" stroke="none" d="
M272.640320,408.151123 
	C277.339905,410.496613 278.295410,413.695129 275.086121,418.068024 
	C273.748718,419.890320 273.071259,422.196930 271.745605,424.800171 
	C266.628571,432.034454 261.837555,438.736481 257.122070,445.491272 
	C256.603760,446.233734 256.031036,447.480011 256.308472,448.152008 
	C258.964905,454.586365 261.302979,461.233093 264.757080,467.228577 
	C267.043823,471.197815 271.003815,474.203033 274.214722,477.639832 
	C267.060089,484.785522 259.905487,491.931244 252.346313,498.969330 
	C245.511353,495.743134 242.578171,489.430542 238.780029,484.025665 
	C235.455383,479.294556 232.894180,474.026947 230.197449,468.732056 
	C236.083542,463.974182 241.768295,459.481049 247.452179,454.986816 
	C250.597061,452.500092 250.649307,449.454163 249.047226,446.114777 
	C248.342819,444.646515 247.628021,443.183197 246.917938,441.717651 
	C256.908997,431.751801 265.638184,420.821655 272.640320,408.151123 
z" data-index="14" style="opacity: 1;"></path>
<path fill="#0986D8" opacity="1.000000" stroke="none" d="
M56.099998,410.676636 
	C50.739811,410.957947 50.033543,407.845032 51.612831,403.983002 
	C53.252186,399.974060 52.139702,397.398010 49.820004,393.762238 
	C45.717628,387.332336 43.229130,379.882660 39.919830,372.928925 
	C39.228661,371.476593 37.907074,370.324310 36.501648,369.017273 
	C41.359123,355.748108 49.169319,344.093964 58.852097,333.277771 
	C63.556644,340.756683 67.904892,348.105286 71.780846,355.695038 
	C75.247917,362.484192 76.484322,368.908539 69.569038,375.146301 
	C65.389153,378.916718 62.484947,384.243866 59.517204,389.178101 
	C56.102753,394.855011 56.551647,395.812042 62.205643,400.069946 
	C60.228985,403.507507 58.252327,406.945068 56.099998,410.676636 
z" data-index="15"></path>
<path fill="#400E65" opacity="1.000000" stroke="none" d="
M182.022232,485.007324 
	C177.321487,485.322327 172.620743,485.637360 167.163040,485.676422 
	C163.309372,484.993988 160.100662,484.970947 157.137970,484.105652 
	C149.704620,481.934723 142.382584,479.382660 135.015900,476.983429 
	C128.593460,471.405548 121.813393,466.177551 115.884247,460.117065 
	C112.392677,456.548126 110.251350,451.658203 107.223373,447.157959 
	C111.936821,442.300415 116.929634,437.647339 122.248825,432.937134 
	C122.846268,444.504150 129.293213,452.259003 138.512558,458.253326 
	C151.458755,466.670776 165.926071,469.195648 181.505005,469.641602 
	C181.984543,475.080383 182.003387,480.043854 182.022232,485.007324 
z" data-index="16"></path>
<path fill="#0A77CE" opacity="1.000000" stroke="none" d="
M62.473263,399.878052 
	C56.551647,395.812042 56.102753,394.855011 59.517204,389.178101 
	C62.484947,384.243866 65.389153,378.916718 69.569038,375.146301 
	C76.484322,368.908539 75.247917,362.484192 71.780846,355.695038 
	C67.904892,348.105286 63.556644,340.756683 59.132263,333.098999 
	C65.989815,325.891785 73.129036,318.888672 80.586342,311.733704 
	C82.047493,315.608551 82.945061,319.725494 84.385391,323.642883 
	C87.271675,331.492981 90.632866,339.172577 93.355621,347.074951 
	C93.862289,348.545502 92.646538,350.971710 91.586403,352.518738 
	C90.509575,354.090149 88.543350,355.019714 87.139008,356.405090 
	C82.682907,360.800995 84.046379,365.163483 90.779327,367.043274 
	C79.950844,376.424072 70.373199,387.207397 62.473263,399.878052 
z" data-index="17"></path>
<path fill="#681681" opacity="1.000000" stroke="none" d="
M134.740173,477.198303 
	C142.382584,479.382660 149.704620,481.934723 157.137970,484.105652 
	C160.100662,484.970947 163.309372,484.993988 166.700165,485.672485 
	C166.665283,491.688263 166.249420,497.428680 166.028519,503.176575 
	C165.727982,510.996460 167.007324,518.467834 171.076065,525.342346 
	C171.776947,526.526550 171.687912,528.178162 171.922729,530.056641 
	C165.531372,530.334656 159.181015,530.169922 152.418167,529.914001 
	C151.737640,529.046753 151.697891,528.025208 151.167160,527.531677 
	C143.722610,520.609070 142.724716,510.337982 137.879547,502.071075 
	C136.181198,499.173279 135.074203,495.923492 133.324692,493.062195 
	C129.914856,487.485596 130.873260,482.394226 134.740173,477.198303 
z" data-index="18"></path>
<path fill="#ECEDEC" opacity="1.000000" stroke="none" d="
M517.360352,418.483337 
	C517.618530,419.653625 518.049194,420.922394 517.601013,421.464447 
	C510.671326,429.844818 493.952667,430.591797 484.174103,423.057526 
	C474.562714,415.652069 472.545502,400.654694 479.756744,390.216492 
	C486.605408,380.303223 500.836395,377.134918 510.717712,383.483948 
	C519.797241,389.317780 521.853271,398.144440 521.099365,408.554321 
	C509.683716,408.554321 498.580383,408.554321 487.418915,408.554321 
	C489.292969,419.810120 501.243225,422.391846 512.765320,414.248077 
	C514.198059,415.561432 515.661072,416.902557 517.360352,418.483337 
M495.490448,389.742981 
	C490.383331,391.317657 487.738098,394.853485 486.840912,400.401489 
	C494.772980,400.401489 502.309814,400.401489 509.853973,400.401489 
	C509.462311,392.316437 504.927063,388.720917 495.490448,389.742981 
z" data-index="19" style="opacity: 1;"></path>
<path fill="#8D1B8A" opacity="1.000000" stroke="none" d="
M229.995728,468.996338 
	C232.894180,474.026947 235.455383,479.294556 238.780029,484.025665 
	C242.578171,489.430542 245.511353,495.743134 252.094040,499.220337 
	C241.733643,506.018005 231.220963,512.457092 220.347321,518.925659 
	C217.608948,514.881714 214.992035,510.926239 212.913864,506.705505 
	C210.225555,501.245575 207.512207,495.710907 205.768799,489.919678 
	C205.152390,487.872040 207.214706,484.910736 208.333740,482.496216 
	C208.842636,481.398163 210.031815,480.615387 211.171951,479.071960 
	C214.953079,476.634674 218.474701,474.815002 222.344910,472.958740 
	C225.127579,471.613556 227.561661,470.304962 229.995728,468.996338 
z" data-index="20"></path>
<path fill="#ECEDEC" opacity="1.000000" stroke="none" d="
M671.022278,427.052582 
	C663.260681,423.826263 660.386963,417.691406 660.171448,410.236298 
	C659.897461,400.756256 660.105103,391.262238 660.105103,381.416199 
	C663.650330,381.416199 667.215332,381.416199 671.187866,381.416199 
	C671.187866,389.488464 671.137756,397.629486 671.201904,405.769592 
	C671.265686,413.861908 674.290894,417.649658 680.661560,417.833618 
	C687.479309,418.030426 691.859314,413.924042 692.169617,406.231873 
	C692.497620,398.102112 692.243225,389.948883 692.243225,381.446045 
	C696.058838,381.446045 699.456299,381.446045 703.280640,381.446045 
	C703.280640,396.334961 703.280640,411.398987 703.280640,426.802368 
	C700.148315,426.802368 696.893372,426.802368 693.266846,426.802368 
	C693.011597,425.583160 692.694702,424.069855 692.253479,421.962585 
	C686.065796,427.979248 679.162903,429.558990 671.022278,427.052582 
z" data-index="21" style="opacity: 1;"></path>
<path fill="#1346B2" opacity="1.000000" stroke="none" d="
M134.990433,285.209473 
	C145.348831,283.840698 155.707245,282.471924 166.529099,281.574005 
	C167.525818,284.422699 167.808960,286.891541 168.635025,289.162872 
	C172.510284,299.818298 176.701309,310.362091 180.390533,321.079712 
	C181.327393,323.801361 180.837692,327.014130 180.591614,329.988220 
	C171.784027,329.309387 163.388306,328.643555 154.994293,327.520203 
	C154.998016,324.897247 154.982513,322.731659 155.006454,320.566467 
	C155.036758,317.824799 156.213165,314.323395 154.952255,312.475433 
	C149.862381,305.015961 143.985703,298.096619 138.491898,290.907257 
	C137.145340,289.145081 136.148209,287.115906 134.990433,285.209473 
z" data-index="22"></path>
<path fill="#ECEDEC" opacity="1.000000" stroke="none" d="
M611.967041,365.361877 
	C615.921448,365.361481 619.382996,365.361481 623.087036,365.361481 
	C623.087036,369.048218 623.087036,372.291199 623.087036,375.876740 
	C616.522522,375.876740 610.239197,375.876740 603.527222,375.876740 
	C603.527222,392.933807 603.527222,409.657166 603.527222,426.730408 
	C599.567810,426.730408 596.029114,426.730408 592.103455,426.730408 
	C592.103455,410.070801 592.103455,393.336578 592.103455,376.055908 
	C585.546631,376.055908 579.337036,376.055908 572.898315,376.055908 
	C572.898315,372.248169 572.898315,368.989746 572.898315,365.362274 
	C585.920776,365.362274 598.697510,365.362274 611.967041,365.361877 
z" data-index="23" style="opacity: 1;"></path>
<path fill="#1151B8" opacity="1.000000" stroke="none" d="
M134.605652,285.177429 
	C136.148209,287.115906 137.145340,289.145081 138.491898,290.907257 
	C143.985703,298.096619 149.862381,305.015961 154.952255,312.475433 
	C156.213165,314.323395 155.036758,317.824799 155.006454,320.566467 
	C154.982513,322.731659 154.998016,324.897247 154.596024,327.527863 
	C153.133148,327.999420 152.070251,328.005829 150.579391,328.006348 
	C144.763611,328.995056 139.375809,329.989624 133.987991,330.984192 
	C136.552811,325.994293 132.631210,322.577576 130.706192,318.913086 
	C127.963783,313.692627 124.659676,308.727051 121.190155,303.946808 
	C119.600998,301.757294 116.997826,300.321472 114.945770,298.444122 
	C113.550095,297.167236 112.312859,295.717194 110.959671,293.959167 
	C118.683342,290.764313 126.452103,287.954834 134.605652,285.177429 
z" data-index="24" style="opacity: 1;"></path>
<path fill="#153BAD" opacity="1.000000" stroke="none" d="
M181.003494,330.001221 
	C180.837692,327.014130 181.327393,323.801361 180.390533,321.079712 
	C176.701309,310.362091 172.510284,299.818298 168.635025,289.162872 
	C167.808960,286.891541 167.525818,284.422699 166.988678,281.641724 
	C173.719757,281.882507 180.454697,282.526489 187.588501,283.313049 
	C184.138931,292.155182 187.701797,298.255188 194.251801,304.103333 
	C198.157532,307.590546 201.050171,312.375061 203.767487,316.950958 
	C204.861938,318.794006 204.751999,321.725006 204.342621,324.008972 
	C203.545486,328.456268 202.150436,332.796387 200.640961,337.553864 
	C196.182953,336.279846 192.087021,334.632843 187.757507,332.723877 
	C185.350479,331.641632 183.176987,330.821411 181.003494,330.001221 
z" data-index="25"></path>
<path fill="#ECEDEC" opacity="1.000000" stroke="none" d="
M557.071350,390.429565 
	C544.982971,388.919617 537.729980,396.262207 539.843201,407.347382 
	C541.714417,417.162598 552.186096,421.706451 560.637878,416.343140 
	C561.888367,415.549622 563.025024,414.576721 564.470154,413.495453 
	C566.842896,415.490326 569.199402,417.471558 571.541382,419.440613 
	C565.201904,427.607635 554.239990,430.444702 543.829407,426.868805 
	C534.377930,423.622345 528.045715,414.419067 528.235352,404.204254 
	C528.438416,393.263947 534.798157,384.462708 544.807983,381.269318 
	C554.899475,378.049927 565.665344,381.013367 571.527893,388.871063 
	C569.282654,390.965393 567.005249,393.089722 565.002991,394.957458 
	C562.268433,393.368774 559.859192,391.969055 557.071350,390.429565 
z" data-index="26" style="opacity: 1;"></path>
<path fill="#AB2097" opacity="1.000000" stroke="none" d="
M274.519226,477.447388 
	C271.003815,474.203033 267.043823,471.197815 264.757080,467.228577 
	C261.302979,461.233093 258.964905,454.586365 256.308472,448.152008 
	C256.031036,447.480011 256.603760,446.233734 257.122070,445.491272 
	C261.837555,438.736481 266.628571,432.034454 271.699982,425.159180 
	C275.382904,433.545380 278.964294,441.874146 288.843262,445.024658 
	C290.126953,445.434021 291.081604,446.875122 292.519440,447.908508 
	C286.841400,457.737427 280.832581,467.496185 274.519226,477.447388 
z" data-index="27" style="opacity: 1;"></path>
<path fill="#132C8E" opacity="1.000000" stroke="none" d="
M187.991058,332.985870 
	C192.087021,334.632843 196.182953,336.279846 200.639313,337.975067 
	C204.996506,341.678436 209.450211,344.954773 212.874344,349.084656 
	C217.148270,354.239502 220.574295,360.097290 224.668732,365.816467 
	C219.953888,370.879303 214.936752,375.777252 209.629578,380.771851 
	C209.778183,369.847076 203.684311,362.506561 195.303619,356.708588 
	C191.660828,354.188416 187.491470,352.429352 183.115723,349.918457 
	C182.345398,349.448944 182.020615,349.385590 181.695831,349.322205 
	C181.695831,349.322235 181.697220,349.387390 181.770920,348.972473 
	C183.893433,343.366974 185.942245,338.176422 187.991058,332.985870 
z" data-index="28"></path>
<path fill="#ECEDEC" opacity="1.000000" stroke="none" d="
M626.209473,382.452820 
	C629.636230,381.593811 632.985229,381.191315 636.707520,380.743988 
	C636.909485,383.442749 637.062927,385.493134 637.233276,387.769775 
	C639.680786,385.834839 641.756531,383.668396 644.276489,382.353027 
	C646.678345,381.099274 649.543457,380.733093 652.686096,379.839905 
	C652.686096,383.951721 652.686096,387.369019 652.686096,390.961395 
	C650.597473,391.428528 648.245422,391.656586 646.128296,392.485046 
	C640.225281,394.795074 637.353943,399.401886 637.241821,405.634796 
	C637.116455,412.605652 637.213074,419.580505 637.213074,426.823547 
	C633.578918,426.823547 630.189331,426.823547 626.131775,426.823547 
	C626.131775,412.084900 626.131775,397.497131 626.209473,382.452820 
z" data-index="29" style="opacity: 1;"></path>
<path fill="#681681" opacity="1.000000" stroke="none" d="
M176.910492,530.255859 
	C176.976456,530.091980 177.189377,530.060974 177.725189,530.028564 
	C177.717865,530.147705 177.387665,530.268250 176.910492,530.255859 
z" data-index="30"></path>
<path fill="#681681" opacity="1.000000" stroke="none" d="
M221.996338,472.995361 
	C218.474701,474.815002 214.953079,476.634674 211.212982,478.723206 
	C205.079834,480.587067 199.202911,482.346954 193.235794,483.712860 
	C189.869934,484.483337 186.355591,484.605103 182.465179,485.013184 
	C182.003387,480.043854 181.984543,475.080383 181.963501,469.705811 
	C193.352341,466.800140 204.743393,464.305542 216.642456,462.071075 
	C219.382584,465.605652 223.456512,468.043121 221.996338,472.995361 
z" data-index="31"></path>
<path fill="#801885" opacity="1.000000" stroke="none" d="
M222.344925,472.958771 
	C223.456512,468.043121 219.382584,465.605652 217.012192,461.983887 
	C226.685593,455.103943 236.497269,448.571350 246.613449,441.878204 
	C247.628021,443.183197 248.342819,444.646515 249.047226,446.114777 
	C250.649307,449.454163 250.597061,452.500092 247.452179,454.986816 
	C241.768295,459.481049 236.083542,463.974182 230.197464,468.732056 
	C227.561661,470.304962 225.127579,471.613556 222.344925,472.958771 
z" data-index="32"></path>
<path fill="#1833A6" opacity="1.000000" stroke="none" d="
M187.757507,332.723877 
	C185.942245,338.176422 183.893433,343.366974 181.738525,348.975952 
	C172.730865,347.890747 163.829315,346.387146 154.461609,344.448761 
	C151.586426,338.943909 148.186722,334.058838 151.007355,328.012207 
	C152.070251,328.005829 153.133148,327.999420 154.594315,327.985413 
	C163.388306,328.643555 171.784027,329.309387 180.591614,329.988220 
	C183.176987,330.821411 185.350479,331.641632 187.757507,332.723877 
z" data-index="33"></path>
<path fill="#1346B2" opacity="1.000000" stroke="none" d="
M150.579391,328.006348 
	C148.186722,334.058838 151.586426,338.943909 154.010681,344.370422 
	C144.307892,346.218506 134.589920,347.710144 124.416306,348.847809 
	C122.962563,344.322815 121.964462,340.151825 120.966362,335.980835 
	C125.058655,334.348450 129.150955,332.716064 133.615631,331.033936 
	C139.375809,329.989624 144.763611,328.995056 150.579391,328.006348 
z" data-index="34" style="opacity: 1;"></path>
<path fill="#1151B8" opacity="1.000000" stroke="none" d="
M120.586914,335.993195 
	C121.964462,340.151825 122.962563,344.322815 124.019653,348.888367 
	C118.311287,351.854218 112.543938,354.425476 106.422203,357.058838 
	C105.013626,355.465027 103.683006,353.921326 102.957184,352.132202 
	C100.797745,346.809448 101.618744,344.663635 106.740791,342.156555 
	C111.171722,339.987793 115.714272,338.047089 120.586914,335.993195 
z" data-index="35"></path>
<path fill="#1833A6" opacity="1.000000" stroke="none" d="
M181.838440,349.538025 
	C182.020615,349.385590 182.345398,349.448944 182.824982,349.716614 
	C182.646866,349.865265 182.313950,349.809570 181.838440,349.538025 
z" data-index="36"></path>
<path fill="#000000" opacity="1.000000" stroke="none" d="
M447.227234,390.364502 
	C454.554840,393.316559 457.862305,397.905670 457.584686,404.881989 
	C457.368103,410.323822 455.508179,414.927521 450.009399,417.276245 
	C445.093506,419.375977 438.834015,418.460785 435.183960,414.761017 
	C430.797638,410.314941 429.803070,404.891754 431.596405,399.078644 
	C433.706055,392.240234 438.730194,389.472382 447.227234,390.364502 
z" data-index="37" style="opacity: 1; visibility: visible; fill: rgb(250, 249, 250);"></path>
<path fill="#000000" opacity="1.000000" stroke="none" d="
M495.864441,389.621429 
	C504.927063,388.720917 509.462311,392.316437 509.853973,400.401489 
	C502.309814,400.401489 494.772980,400.401489 486.840912,400.401489 
	C487.738098,394.853485 490.383331,391.317657 495.864441,389.621429 
z" data-index="38" style="opacity: 1; stroke-width: 2px; stroke: rgb(250, 249, 250); visibility: visible; fill: rgb(250, 249, 250);"></path>
</svg>